<?xml version="1.0" encoding="UTF-8" standalone="no"?>
<!DOCTYPE svg PUBLIC "-//W3C//DTD SVG 1.1//EN" "http://www.w3.org/Graphics/SVG/1.1/DTD/svg11.dtd">
<svg version="1.1" xmlns="http://www.w3.org/2000/svg" xmlns:xlink="http://www.w3.org/1999/xlink" preserveAspectRatio="xMidYMid meet" viewBox="0 0 640 640" width="640" height="640"><defs><path d="M314 294L542.61 161.1L542.77 161.38L623.01 114.74L623.2 115.06L623.38 115.4L623.56 115.75L623.71 116.11L623.86 116.47L623.99 116.84L624.11 117.21L624.21 117.6L624.3 117.98L624.37 118.38L624.43 118.78L624.47 119.18L624.49 119.59L624.5 120L624.5 461L624.49 461.41L624.47 461.82L624.43 462.22L624.37 462.62L624.3 463.02L624.21 463.4L624.11 463.79L623.99 464.16L623.86 464.53L623.71 464.89L623.56 465.25L623.38 465.6L623.2 465.94L623 466.27L622.79 466.59L622.57 466.91L622.34 467.21L622.09 467.51L621.84 467.79L621.57 468.07L621.29 468.34L621.01 468.59L620.71 468.84L620.41 469.07L620.09 469.29L619.77 469.5L619.44 469.7L619.1 469.88L618.75 470.06L618.39 470.21L618.03 470.36L617.66 470.49L617.29 470.61L616.9 470.71L616.52 470.8L616.12 470.87L615.72 470.93L615.32 470.97L614.91 470.99L614.5 471L13.5 471L13.09 470.99L12.68 470.97L12.28 470.93L11.88 470.87L11.48 470.8L11.1 470.71L10.71 470.61L10.34 470.49L9.97 470.36L9.61 470.21L9.25 470.06L8.9 469.88L8.56 469.7L8.23 469.5L7.91 469.29L7.59 469.07L7.29 468.84L6.99 468.59L6.71 468.34L6.43 468.07L6.16 467.79L5.91 467.51L5.66 467.21L5.43 466.91L5.21 466.59L5 466.27L4.8 465.94L4.62 465.6L4.44 465.25L4.29 464.89L4.14 464.53L4.01 464.16L3.89 463.79L3.79 463.4L3.7 463.02L3.63 462.62L3.57 462.22L3.53 461.82L3.51 461.41L3.5 461L3.5 120L3.51 119.59L3.53 119.18L3.57 118.78L3.63 118.38L3.7 117.98L3.79 117.6L3.89 117.21L4.01 116.84L4.14 116.47L4.29 116.11L4.44 115.75L4.62 115.4L4.8 115.06L5 114.73L5.01 114.72L81.82 159.38L81.97 159.12L81.97 159.12L314 294ZM314 261L97.76 135.3L97 135.3L97 134.85L96.04 134.29L95.44 134.29L53.65 110L574.39 110L530.87 135.3L530.24 135.3L530.24 135.3L314 261Z" id="c68QsAPpFx"></path></defs><g><g><g><use xlink:href="#c68QsAPpFx" opacity="1" fill="#000000" fill-opacity="1"></use></g></g></g></svg>