<?xml version="1.0" encoding="UTF-8" standalone="no"?>
<!DOCTYPE svg PUBLIC "-//W3C//DTD SVG 1.1//EN" "http://www.w3.org/Graphics/SVG/1.1/DTD/svg11.dtd">
<svg version="1.1" xmlns="http://www.w3.org/2000/svg" xmlns:xlink="http://www.w3.org/1999/xlink" preserveAspectRatio="xMidYMid meet" viewBox="0 0 640 640" width="640" height="640"><defs><path d="M275.91 49.98L265.23 51.95L254.69 54.33L244.31 57.11L234.1 60.29L224.07 63.86L214.22 67.8L204.56 72.11L195.11 76.79L185.86 81.81L176.84 87.18L168.05 92.88L159.49 98.91L151.18 105.25L143.12 111.9L135.33 118.85L127.81 126.09L120.57 133.61L113.62 141.4L106.98 149.46L100.63 157.77L94.61 166.33L88.91 175.12L83.54 184.14L78.52 193.39L73.85 202.84L69.54 212.5L65.59 222.35L62.03 232.39L58.85 242.6L56.07 252.98L53.69 263.51L51.73 274.2L50.18 285.03L49.07 295.99L48.39 307.07L48.17 318.27L48.4 329.47L49.07 340.55L50.19 351.51L51.73 362.34L53.7 373.02L56.08 383.56L58.86 393.94L62.04 404.15L65.61 414.18L69.55 424.03L73.86 433.69L78.54 443.14L83.56 452.39L88.93 461.41L94.63 470.2L100.66 478.76L107 487.07L113.65 495.13L120.6 502.92L127.84 510.44L135.36 517.68L143.15 524.62L151.21 531.27L159.52 537.62L168.08 543.64L176.87 549.34L185.9 554.71L195.14 559.73L204.59 564.4L214.25 568.71L224.1 572.65L234.14 576.22L244.35 579.4L254.73 582.18L265.26 584.56L275.95 586.52L286.78 588.07L297.74 589.18L308.82 589.86L320.02 590.08L331.22 589.85L342.3 589.18L353.26 588.06L364.09 586.52L374.77 584.55L385.31 582.17L395.69 579.39L405.9 576.21L415.93 572.64L425.78 568.7L435.44 564.39L444.89 559.71L454.14 554.69L463.16 549.32L471.96 543.62L480.51 537.59L488.82 531.25L496.88 524.6L504.67 517.65L512.19 510.41L519.43 502.89L526.38 495.1L533.03 487.04L539.37 478.73L545.39 470.17L551.09 461.38L556.46 452.35L561.48 443.11L566.15 433.66L570.46 424L574.41 414.15L577.97 404.11L581.15 393.9L583.93 383.52L586.31 372.99L588.27 362.3L589.82 351.47L590.93 340.51L591.61 329.43L591.83 318.23L591.6 307.03L590.93 295.95L589.81 284.99L588.27 274.16L587.23 268.53L627.65 251.12L628.48 254.8L630.75 267.18L632.54 279.72L633.84 292.42L634.62 305.26L634.88 318.23L634.62 331.2L633.84 344.04L632.55 356.73L630.76 369.28L628.48 381.65L625.73 393.86L622.51 405.88L618.83 417.71L614.7 429.34L610.13 440.75L605.14 451.93L599.72 462.89L593.91 473.59L587.69 484.05L581.09 494.23L574.11 504.15L566.76 513.77L559.06 523.11L551.01 532.13L542.63 540.85L533.92 549.23L524.89 557.28L515.56 564.98L505.93 572.33L496.02 579.31L485.83 585.92L475.38 592.13L464.67 597.95L453.72 603.37L442.54 608.36L431.13 612.93L419.5 617.06L407.68 620.74L395.65 623.97L383.45 626.73L371.07 629L358.53 630.79L345.83 632.09L332.99 632.87L320.02 633.13L307.05 632.87L294.21 632.09L281.52 630.8L268.97 629.01L256.6 626.73L244.39 623.98L232.37 620.76L220.54 617.07L208.91 612.95L197.5 608.38L186.32 603.38L175.36 597.97L164.66 592.15L154.2 585.94L144.02 579.34L134.1 572.36L124.47 565.01L115.14 557.31L106.12 549.26L97.4 540.88L89.02 532.17L80.97 523.14L73.27 513.81L65.92 504.18L58.94 494.27L52.33 484.08L46.12 473.63L40.3 462.92L34.88 451.97L29.89 440.79L25.32 429.38L21.19 417.75L17.51 405.92L14.28 393.9L11.52 381.7L9.25 369.32L7.46 356.78L6.16 344.08L5.38 331.24L5.12 318.27L5.38 305.3L6.16 292.46L7.45 279.77L9.24 267.22L11.52 254.84L14.27 242.64L17.49 230.62L21.18 218.79L25.3 207.16L29.87 195.75L34.87 184.57L40.28 173.61L46.1 162.91L52.31 152.45L58.91 142.26L65.89 132.35L73.24 122.72L80.94 113.39L88.99 104.36L97.37 95.65L106.08 87.27L115.11 79.22L124.44 71.51L134.07 64.17L143.98 57.19L154.17 50.58L164.62 44.37L175.33 38.55L186.28 33.13L197.46 28.14L208.87 23.57L220.5 19.44L232.33 15.76L244.35 12.53L256.55 9.77L268.93 7.49L273.33 6.87L279.42 49.48L275.91 49.98Z" id="c5y4COx9zJ"></path><linearGradient id="gradientgnAbKMMYB" gradientUnits="userSpaceOnUse" x1="398.9" y1="382.1" x2="242.24" y2="313.27"><stop style="stop-color: #000000;stop-opacity: 0" offset="0%"></stop><stop style="stop-color: #000000;stop-opacity: 1" offset="100%"></stop></linearGradient></defs><g><g><g><use xlink:href="#c5y4COx9zJ" opacity="1" fill="url(#gradientgnAbKMMYB)"></use></g></g></g></svg>