<?xml version="1.0" encoding="UTF-8" standalone="no"?>
<!DOCTYPE svg PUBLIC "-//W3C//DTD SVG 1.1//EN" "http://www.w3.org/Graphics/SVG/1.1/DTD/svg11.dtd">
<svg version="1.1" xmlns="http://www.w3.org/2000/svg" xmlns:xlink="http://www.w3.org/1999/xlink" preserveAspectRatio="xMidYMid meet" viewBox="0 0 640 640" width="640" height="640"><defs><path d="M573.6 150.66L574.02 150.69L574.42 150.73L574.83 150.79L575.23 150.86L575.62 150.95L576.01 151.05L576.39 151.17L576.77 151.3L577.13 151.45L577.49 151.61L577.85 151.79L578.19 151.97L578.53 152.17L578.86 152.39L579.18 152.61L579.49 152.85L579.79 153.1L580.08 153.36L580.36 153.63L580.63 153.91L580.89 154.2L581.14 154.5L581.37 154.81L581.6 155.13L581.81 155.46L582.01 155.79L582.2 156.14L582.37 156.49L582.53 156.85L582.68 157.22L582.81 157.59L582.93 157.98L583.04 158.36L583.12 158.76L583.2 159.16L583.26 159.56L583.3 159.97L583.32 160.38L583.33 160.8L583.33 165.77L583.33 171.14L583.33 176.92L583.33 183.06L583.33 189.55L583.33 196.37L583.33 203.5L583.33 210.91L583.33 218.58L583.33 226.49L583.33 234.63L583.33 242.95L583.33 251.46L583.33 260.11L583.33 268.9L583.33 277.79L583.33 286.78L583.33 295.82L583.33 304.92L583.33 314.03L583.33 323.14L583.33 332.24L583.33 341.29L583.33 350.27L583.33 359.16L583.33 367.95L583.33 376.61L583.33 385.11L583.33 393.44L583.33 401.57L583.33 409.48L583.33 417.15L583.33 424.56L583.33 431.69L583.33 438.51L583.33 445L583.33 451.14L583.33 456.92L583.33 462.3L583.33 467.26L583.32 467.68L583.3 468.09L583.26 468.5L583.2 468.91L583.12 469.3L583.04 469.7L582.93 470.09L582.81 470.47L582.68 470.84L582.53 471.21L582.37 471.57L582.2 471.92L582.01 472.27L581.81 472.6L581.6 472.93L581.37 473.25L581.14 473.56L580.89 473.86L580.63 474.15L580.36 474.43L580.08 474.71L579.79 474.96L579.49 475.21L579.18 475.45L578.86 475.67L578.53 475.89L578.19 476.09L577.85 476.27L577.49 476.45L577.13 476.61L576.77 476.76L576.39 476.89L576.01 477.01L575.62 477.11L575.23 477.2L574.83 477.27L574.42 477.33L574.02 477.37L573.6 477.4L573.18 477.41L565.07 477.41L556.26 477.41L546.79 477.41L536.69 477.41L526 477.41L514.76 477.41L503.01 477.41L490.77 477.41L478.09 477.41L465.01 477.41L451.56 477.41L437.78 477.41L423.7 477.41L409.36 477.41L394.81 477.41L380.07 477.41L365.18 477.41L350.18 477.41L335.11 477.41L320 477.41L304.89 477.41L289.82 477.41L274.82 477.41L259.93 477.41L245.19 477.41L230.64 477.41L216.3 477.41L202.22 477.41L188.44 477.41L174.99 477.41L161.91 477.41L149.23 477.41L136.99 477.41L125.24 477.41L114 477.41L103.31 477.41L93.21 477.41L83.74 477.41L74.93 477.41L66.82 477.41L66.4 477.4L65.98 477.37L65.58 477.33L65.17 477.27L64.77 477.2L64.38 477.11L63.99 477.01L63.61 476.89L63.23 476.76L62.87 476.61L62.51 476.45L62.15 476.27L61.81 476.09L61.47 475.89L61.14 475.67L60.82 475.45L60.51 475.21L60.21 474.96L59.92 474.71L59.64 474.43L59.37 474.15L59.11 473.86L58.86 473.56L58.63 473.25L58.4 472.93L58.19 472.6L57.99 472.27L57.8 471.92L57.63 471.57L57.47 471.21L57.32 470.84L57.19 470.47L57.07 470.09L56.96 469.7L56.88 469.3L56.8 468.91L56.74 468.5L56.7 468.09L56.68 467.68L56.67 467.26L56.67 462.3L56.67 456.92L56.67 451.14L56.67 445L56.67 438.51L56.67 431.69L56.67 424.56L56.67 417.15L56.67 409.48L56.67 401.57L56.67 393.44L56.67 385.11L56.67 376.61L56.67 367.95L56.67 359.16L56.67 350.27L56.67 341.29L56.67 332.24L56.67 323.14L56.67 314.03L56.67 304.92L56.67 295.82L56.67 286.78L56.67 277.79L56.67 268.9L56.67 260.11L56.67 251.46L56.67 242.95L56.67 234.63L56.67 226.49L56.67 218.58L56.67 210.91L56.67 203.5L56.67 196.37L56.67 189.55L56.67 183.06L56.67 176.92L56.67 171.14L56.67 165.77L56.67 160.8L56.68 160.38L56.7 159.97L56.74 159.56L56.8 159.16L56.88 158.76L56.96 158.36L57.07 157.98L57.19 157.59L57.32 157.22L57.47 156.85L57.63 156.49L57.8 156.14L57.99 155.79L58.19 155.46L58.4 155.13L58.63 154.81L58.86 154.5L59.11 154.2L59.37 153.91L59.64 153.63L59.92 153.36L60.21 153.1L60.51 152.85L60.82 152.61L61.14 152.39L61.47 152.17L61.81 151.97L62.15 151.79L62.51 151.61L62.87 151.45L63.23 151.3L63.61 151.17L63.99 151.05L64.38 150.95L64.77 150.86L65.17 150.79L65.58 150.73L65.98 150.69L66.4 150.66L66.82 150.65L74.93 150.65L83.74 150.65L93.21 150.65L103.31 150.65L114 150.65L125.24 150.65L136.99 150.65L149.23 150.65L161.91 150.65L174.99 150.65L188.44 150.65L202.22 150.65L216.3 150.65L230.64 150.65L245.19 150.65L259.93 150.65L274.82 150.65L289.82 150.65L304.89 150.65L320 150.65L335.11 150.65L350.18 150.65L365.18 150.65L380.07 150.65L394.81 150.65L409.36 150.65L423.7 150.65L437.78 150.65L451.56 150.65L465.01 150.65L478.09 150.65L490.77 150.65L503.01 150.65L514.76 150.65L526 150.65L536.69 150.65L546.79 150.65L556.26 150.65L565.07 150.65L573.18 150.65L573.18 150.65L573.6 150.66Z" id="h4ek0JMBhd"></path><path d="M583.33 150.65C460.74 235.92 384.12 289.21 353.47 310.53C333.35 324.52 306.65 324.52 286.53 310.53C255.88 289.21 179.26 235.92 56.67 150.65" id="e4XoG21KvW"></path></defs><g><g><g><use xlink:href="#h4ek0JMBhd" opacity="1" fill="#818181" fill-opacity="1"></use><g><use xlink:href="#h4ek0JMBhd" opacity="1" fill-opacity="0" stroke="#000000" stroke-width="7" stroke-opacity="1"></use></g></g><g><g><use xlink:href="#e4XoG21KvW" opacity="1" fill-opacity="0" stroke="#000000" stroke-width="7" stroke-opacity="1"></use></g></g></g></g></svg>