<?xml version="1.0" encoding="UTF-8" standalone="no"?>
<!DOCTYPE svg PUBLIC "-//W3C//DTD SVG 1.1//EN" "http://www.w3.org/Graphics/SVG/1.1/DTD/svg11.dtd">
<svg version="1.1" xmlns="http://www.w3.org/2000/svg" xmlns:xlink="http://www.w3.org/1999/xlink" preserveAspectRatio="xMidYMid meet" viewBox="0 0 640 640" width="640" height="640"><defs><path d="M174.28 285.46L163.99 258.6L154.97 231.45L147.17 204.02L140.62 176.38L135.29 148.52L131.17 120.51L128.25 92.35L126.52 64.09L126.52 64.09L126.46 60.81L126.49 60.35L126.56 59.87L126.64 59.4L126.74 58.93L126.85 58.47L126.98 58.02L127.13 57.57L127.29 57.13L127.47 56.7L127.66 56.27L127.87 55.86L128.1 55.45L128.34 55.05L128.59 54.66L128.86 54.29L129.14 53.92L129.44 53.56L129.75 53.21L130.06 52.88L130.4 52.56L130.74 52.24L131.1 51.95L131.46 51.65L131.85 51.39L132.23 51.13L132.63 50.88L133.04 50.65L133.46 50.43L133.68 50.33L265.85 47.5L267.44 60.4L270.77 81.22L274.85 102.07L279.69 122.92L282.19 132.17L214.73 205.19L213.72 206.44L212.72 207.68L211.73 208.92L210.76 210.15L209.8 211.37L208.87 212.59L207.96 213.81L207.07 215.02L206.21 216.22L205.37 217.42L204.56 218.61L203.78 219.81L203.03 221L202.32 222.18L201.63 223.38L200.98 224.55L200.37 225.73L199.8 226.9L199.27 228.09L198.78 229.26L198.34 230.43L197.93 231.61L197.58 232.78L197.27 233.95L197.01 235.13L196.81 236.31L196.65 237.49L196.56 238.66L196.51 239.84L196.52 241.02L196.59 242.21L196.72 243.39L196.92 244.59L197.17 245.77L197.5 246.97L197.88 248.17L198.33 249.38L198.86 250.6L199.46 251.81L200.13 253.03L248.7 337.14L248.7 337.14L254.44 347.08L254.44 347.08L303 431.21L303.73 432.4L304.49 433.52L305.27 434.58L306.08 435.58L306.93 436.52L307.8 437.39L308.71 438.21L309.64 438.97L310.61 439.69L311.6 440.34L312.61 440.94L313.66 441.49L314.73 442L315.83 442.45L316.94 442.86L318.09 443.22L319.26 443.54L320.45 443.82L321.68 444.06L322.91 444.26L324.18 444.43L325.46 444.55L326.76 444.65L328.09 444.71L329.44 444.74L330.81 444.73L332.19 444.71L333.59 444.66L335.02 444.57L336.46 444.47L337.92 444.35L339.39 444.2L340.88 444.04L342.39 443.85L343.91 443.66L345.45 443.44L347 443.22L348.57 442.98L350.14 442.73L351.74 442.47L448.7 420.57L455.46 427.36L471.1 441.98L487.11 455.93L503.49 469.22L513.54 476.82L496.16 506.25L445.35 590.05L444.98 590.31L444.57 590.57L444.14 590.82L443.71 591.04L443.27 591.26L442.82 591.45L442.37 591.63L441.92 591.8L441.45 591.95L440.98 592.08L440.5 592.19L440.03 592.29L439.55 592.36L439.07 592.42L438.58 592.47L438.09 592.49L437.6 592.5L437.11 592.49L436.62 592.46L436.13 592.41L435.63 592.35L435.14 592.26L434.65 592.15L434.16 592.03L434.14 592.02L429.83 589.42L406.22 573.8L383.3 557.19L361.09 539.61L339.64 521.07L318.96 501.57L299.11 481.12L280.1 459.71L261.99 437.38L244.79 414.11L228.54 389.92L213.28 364.81L213.03 364.36L212.77 363.93L198.66 338.16L185.82 311.99L174.28 285.46Z" id="a1ODGQg3sh"></path><path d="M361.52 401.82C361.52 401.82 361.52 401.82 361.52 401.82C377.38 336.41 344.17 269.02 282.63 241.76C281.55 241.28 278.85 240.09 274.54 238.18" id="c58hqr2RqA"></path><path d="M410.01 398.73C410.01 398.73 410.01 398.73 410.01 398.73C430.36 314.87 387.77 228.47 308.87 193.52C307.49 192.9 304.03 191.37 298.5 188.93" id="a9s1vnPv50"></path><path d="M470.6 395.64C470.6 395.64 470.6 395.64 470.6 395.64C495.34 293.65 443.55 188.58 347.59 146.07C345.91 145.33 341.71 143.47 334.99 140.49" id="a3uOLnRJGb"></path></defs><g><g><g><use xlink:href="#a1ODGQg3sh" opacity="1" fill="#818181" fill-opacity="1"></use><g><use xlink:href="#a1ODGQg3sh" opacity="1" fill-opacity="0" stroke="#000000" stroke-width="7" stroke-opacity="1"></use></g></g><g><g><use xlink:href="#c58hqr2RqA" opacity="1" fill-opacity="0" stroke="#7a67f3" stroke-width="8" stroke-opacity="1"></use></g></g><g><g><use xlink:href="#a9s1vnPv50" opacity="1" fill-opacity="0" stroke="#7a67f3" stroke-width="8" stroke-opacity="1"></use></g></g><g><g><use xlink:href="#a3uOLnRJGb" opacity="1" fill-opacity="0" stroke="#7a67f3" stroke-width="8" stroke-opacity="1"></use></g></g></g></g></svg>