<svg id="Layer_1" data-name="Layer 1" xmlns="http://www.w3.org/2000/svg" viewBox="0 0 623.36 200.33"><defs><style>.cls-1{fill:red;}</style></defs><path id="a6upotEyAa" class="cls-1" d="M379,220.54l28.75,3.27,28.4,4.52,28,5.76,27.65,7L519,249.2l26.79,9.31L572.11,269,598,280.5l25.34,12.63h0l2.87,1.59.38.26.38.3.37.3.36.32.34.33.33.34.31.35.3.36.29.37.27.38.25.39.24.4.23.41.21.41.19.42.18.43.16.44.15.44.13.44.11.45.1.45.08.46.07.46,0,.47,0,.46,0,.47v.47l0,.47,0,.25-57.49,104.7a14.13,14.13,0,0,1-17.88,6.2L556,417l-19.7-7.53-20.09-6.89-20.48-6.23-1.72-.46a14.12,14.12,0,0,1-9.86-9.45l-27.05-87c-.09-.31-.2-.61-.31-.9l-.41-1.06-.57-1.49-.58-1.48-.58-1.45-.58-1.44-.59-1.42-.6-1.4-.6-1.37-.61-1.35-.62-1.33-.63-1.29-.65-1.28-.65-1.24-.67-1.21-.69-1.19-.69-1.15-.72-1.12-.73-1.08-.76-1.05-.77-1-.79-1-.82-.94-.84-.89-.86-.86-.89-.81-.92-.76-.63-.49-.63-.46-.65-.45-1-.63-1-.58-1.06-.53-1.09-.48-.77-.29-.73-.26-.79-.25-1.2-.32-1.23-.27-1.27-.21-1.32-.15-1.35-.09-1.39,0H217.11l-1.39,0-1.35.09-1.31.15-.86.14-.81.15-.84.18-1.19.32-.79.25-.73.26-.77.29-1.1.48-1.06.53-1,.58-1,.63-.65.45-.63.46-.63.49-.91.76-.89.81-.86.86-.84.89-.82.94-.79,1-.78,1-.75,1.05-.73,1.08-.72,1.12-.7,1.15-.68,1.19-.67,1.21-.66,1.24-.64,1.28-.63,1.3-.62,1.32-.61,1.35-.6,1.37-.6,1.4-.59,1.42-.58,1.44-.58,1.45-.58,1.48-.57,1.49-.41,1.08c-.11.29-.22.58-.31.87l-27,87a14.12,14.12,0,0,1-9.86,9.45l-1.72.46-20.48,6.23-20.09,6.89L84,417h0A14.11,14.11,0,0,1,66.16,411l-10.61-18.8L8.38,306.27l0-.45,0-.49v-.49l0-.49,0-.49.06-.48.07-.48.08-.48.11-.48.12-.47L9,301l.15-.46.18-.45.19-.45.2-.45.23-.43.23-.43.26-.42.27-.41.29-.4.3-.4.32-.38.34-.37.35-.36,0,0,4.41-2.43L42,280.51,67.86,269l26.33-10.44L121,249.21l27.22-8.16,27.64-7,28-5.76,28.4-4.52L261,220.55l29.07-2,29.38-.66h1l29.37.66Z" transform="translate(-8.32 -217.91)"/></svg>