<svg id="Layer_1" data-name="Layer 1" xmlns="http://www.w3.org/2000/svg" viewBox="0 0 340.98 491.28"><defs><style>.cls-1,.cls-3{fill:none;}.cls-1{stroke:#39b54a;stroke-width:17px;}.cls-1,.cls-3,.cls-4{stroke-miterlimit:10;}.cls-2{fill:#39b54a;}.cls-3,.cls-4{stroke:#231f20;}.cls-3{stroke-width:23px;}.cls-4{fill:#231f20;stroke-width:10px;}</style></defs><circle class="cls-1" cx="170.49" cy="277.12" r="122.12"/><rect class="cls-2" x="210.72" y="440.15" width="96.11" height="34.51" rx="17.26" transform="translate(215.93 -204) rotate(39.47)"/><rect class="cls-2" x="309.15" y="332.34" width="37.17" height="176.11" rx="17.26" transform="translate(208.12 -256.28) rotate(39.47)"/><rect class="cls-3" x="11.5" y="74.47" width="317.98" height="405.31" rx="30.09"/><path class="cls-4" d="M373.74,177.14H345.43A14.16,14.16,0,0,1,331.27,163h0a14.16,14.16,0,0,0-14.16-14.16H291.65A14.15,14.15,0,0,0,277.5,163h0a14.16,14.16,0,0,1-14.16,14.16H235a14.16,14.16,0,0,0-14.16,14.16v24.48h167V191.3A14.16,14.16,0,0,0,373.74,177.14Zm-69.36.09A13.25,13.25,0,1,1,317.63,164,13.25,13.25,0,0,1,304.38,177.23Z" transform="translate(-133.89 -143.82)"/></svg>