<svg xmlns="http://www.w3.org/2000/svg" xmlns:xlink="http://www.w3.org/1999/xlink" viewBox="0 0 305.94 344.16"><defs><style>.cls-1,.cls-4{fill:none;}.cls-2,.cls-5{fill:#231f20;}.cls-3{clip-path:url(#clip-path);}.cls-4,.cls-5{stroke:#231f20;stroke-miterlimit:10;stroke-width:19px;}.cls-6{fill:#fff;}</style><clipPath id="clip-path" transform="translate(-56.99 -283.43)"><rect class="cls-1" x="67.52" y="489.1" width="54.76" height="54.76"/></clipPath></defs><g id="Arrows"><path class="cls-2" d="M328.59,550.45c0,33.32-54.11,60.27-121,60.27v16.87c77.58,0,140.35-34.5,140.35-77.14H328.59" transform="translate(-56.99 -283.43)"/><path class="cls-2" d="M95.81,570,84,584c22.85,25.56,70.67,43.14,126,43.14V610.27C157.19,610.27,112.34,593.46,95.81,570Z" transform="translate(-56.99 -283.43)"/><g class="cls-3"><path class="cls-2" d="M88.87,550.45c0-33.31,53.83-60.27,120.36-60.27V473.32c-77.17,0-139.62,34.5-139.62,77.13H88.87" transform="translate(-56.99 -283.43)"/></g><polygon class="cls-2" points="280.07 228.46 254.21 273.25 305.94 273.25 280.07 228.46"/><polygon class="cls-2" points="25.86 295.64 0 250.85 51.72 250.85 25.86 295.64"/><path class="cls-2" d="M293,489.1v18.5c11.62,5.76,20.91,12.69,27.09,20.42l10.84-14.53C321.5,504,308.53,495.65,293,489.1Z" transform="translate(-56.99 -283.43)"/></g><g id="Phone"><rect class="cls-4" x="65.29" y="9.5" width="175.35" height="286.73" rx="15.55"/><rect class="cls-5" x="75.02" y="267.02" width="150.44" height="23.89"/><circle class="cls-6" cx="152.97" cy="281.67" r="15.77"/><rect class="cls-5" x="77.75" y="16.58" width="150.44" height="28.32"/><rect class="cls-6" x="114" y="21.89" width="79.36" height="10.62" rx="5.31"/></g><g id="Environment"><polygon class="cls-2" points="179.41 190.78 236.01 260.44 122.81 260.44 179.41 190.78"/><polygon class="cls-2" points="121.81 132.05 178.41 260.44 65.21 260.44 121.81 132.05"/><circle class="cls-2" cx="178.49" cy="113.08" r="24.43"/></g></svg>