<svg id="Layer_1" data-name="Layer 1" xmlns="http://www.w3.org/2000/svg" viewBox="0 0 150.31 206.52"><defs><style>.cls-1{fill:#231f20;}</style></defs><rect class="cls-1" x="39.27" width="71.77" height="150.84" rx="35.88"/><path class="cls-1" d="M319.46,420.91c-5.56,42.23-37,74.54-75,74.54v-23c27,0,49.34-23.73,53.38-54.8.75-5.78,5.36-10.11,10.84-10.11h0C315.31,407.53,320.39,413.85,319.46,420.91Z" transform="translate(-169.25 -309.83)"/><path class="cls-1" d="M169.36,420.91c5.56,42.23,37,74.54,75,74.54v-23c-27,0-49.34-23.73-53.37-54.8-.76-5.78-5.37-10.11-10.84-10.11h0C173.52,407.53,168.44,413.85,169.36,420.91Z" transform="translate(-169.25 -309.83)"/><rect class="cls-1" x="63.16" y="171.93" width="24" height="28.94"/><rect class="cls-1" x="29.48" y="196.64" width="91.15" height="9.88" rx="4.94"/></svg>