<?xml version="1.0" encoding="UTF-8" standalone="no"?>
<!DOCTYPE svg PUBLIC "-//W3C//DTD SVG 1.1//EN" "http://www.w3.org/Graphics/SVG/1.1/DTD/svg11.dtd">
<svg version="1.1" xmlns="http://www.w3.org/2000/svg" xmlns:xlink="http://www.w3.org/1999/xlink" preserveAspectRatio="xMidYMid meet" viewBox="0 0 640 640" width="640" height="640"><defs><path d="M540.88 36.24C572.52 36.24 598.17 64.07 598.17 98.4C598.17 193.47 483.59 240.65 483.59 243.27C483.59 243.27 483.59 243.27 483.59 243.27C483.59 240.65 369.01 193.47 369.01 98.39C369.01 64.06 394.66 36.23 426.3 36.23C457.94 36.23 483.59 60.61 483.58 94.95C483.58 60.62 509.24 36.24 540.88 36.24Z" id="dJ9QD1p9z"></path><path d="M172.87 312.01L166.21 288.69L160.63 265.22L156.1 241.61L152.64 217.9L150.21 194.11L148.81 170.28L148.44 146.42L149.06 122.55L149.06 122.55L149.26 119.8L149.32 119.41L149.41 119.01L149.51 118.63L149.63 118.24L149.76 117.86L149.9 117.49L150.06 117.12L150.23 116.77L150.41 116.41L150.6 116.07L150.81 115.74L151.03 115.42L151.26 115.09L151.5 114.79L151.75 114.49L152.02 114.2L152.3 113.92L152.58 113.65L152.87 113.4L153.17 113.15L153.48 112.91L153.81 112.69L154.13 112.47L154.48 112.27L154.82 112.09L155.17 111.9L155.53 111.74L155.9 111.59L156.1 111.52L267.31 118.88L267.7 129.83L268.96 147.57L270.85 165.38L273.39 183.25L274.81 191.2L212.77 247.56L211.83 248.54L210.89 249.51L209.97 250.48L209.07 251.44L208.17 252.39L207.3 253.35L206.44 254.31L205.61 255.26L204.79 256.2L204 257.15L203.24 258.09L202.49 259.04L201.77 259.98L201.09 260.92L200.42 261.88L199.79 262.81L199.19 263.76L198.62 264.7L198.09 265.66L197.6 266.61L197.14 267.56L196.71 268.52L196.33 269.48L195.98 270.44L195.67 271.41L195.42 272.38L195.2 273.36L195.03 274.34L194.91 275.33L194.83 276.32L194.8 277.32L194.82 278.33L194.9 279.34L195.03 280.36L195.21 281.39L195.44 282.43L195.73 283.47L196.09 284.54L196.5 285.6L196.97 286.67L231.58 360.9L231.58 360.9L235.67 369.67L235.67 369.67L270.26 443.92L270.78 444.96L271.33 445.96L271.91 446.91L272.52 447.81L273.17 448.66L273.84 449.46L274.53 450.21L275.26 450.92L276.02 451.59L276.8 452.21L277.61 452.79L278.45 453.33L279.31 453.84L280.2 454.3L281.11 454.72L282.04 455.11L283.01 455.46L283.99 455.79L285 456.08L286.02 456.34L287.07 456.57L288.14 456.77L289.22 456.95L290.34 457.1L291.46 457.22L292.62 457.32L293.78 457.4L294.96 457.46L296.17 457.5L297.39 457.52L298.62 457.52L299.86 457.5L301.12 457.47L302.41 457.43L303.7 457.38L305.01 457.31L306.33 457.24L307.66 457.15L309.01 457.06L310.37 456.96L393.42 445.71L398.6 451.91L410.65 465.34L423.07 478.24L435.85 490.61L443.74 497.73L426.97 521.17L378.12 587.81L377.79 588.01L377.42 588.2L377.05 588.37L376.67 588.53L376.28 588.68L375.89 588.81L375.5 588.92L375.11 589.03L374.7 589.12L374.3 589.2L373.89 589.26L373.49 589.31L373.08 589.33L372.67 589.34L372.25 589.35L371.84 589.33L371.43 589.31L371.02 589.26L370.61 589.2L370.2 589.12L369.78 589.03L369.38 588.92L368.98 588.79L368.58 588.65L368.55 588.65L365.13 586.14L346.45 571.28L328.42 555.65L311.07 539.24L294.41 522.08L278.48 504.19L263.31 485.54L248.92 466.17L235.35 446.07L222.62 425.26L210.76 403.75L199.79 381.53L199.61 381.14L199.42 380.75L189.47 358.07L180.62 335.14L172.87 312.01Z" id="g1IFGbJBcZ"></path></defs><g><g><g><use xlink:href="#dJ9QD1p9z" opacity="1" fill="#e47070" fill-opacity="1"></use></g><g><use xlink:href="#g1IFGbJBcZ" opacity="1" fill="#000000" fill-opacity="1"></use><g><use xlink:href="#g1IFGbJBcZ" opacity="1" fill-opacity="0" stroke="#000000" stroke-width="1" stroke-opacity="0"></use></g></g></g></g></svg>