<?xml version="1.0" encoding="UTF-8" standalone="no"?>
<!DOCTYPE svg PUBLIC "-//W3C//DTD SVG 1.1//EN" "http://www.w3.org/Graphics/SVG/1.1/DTD/svg11.dtd">
<svg version="1.1" xmlns="http://www.w3.org/2000/svg" xmlns:xlink="http://www.w3.org/1999/xlink" preserveAspectRatio="xMidYMid meet" viewBox="0 0 640 640" width="640" height="640"><defs><path d="M587 204.1C592.52 204.1 597 208.58 597 214.1C597 287.5 597 497.7 597 571.1C597 576.62 592.52 581.1 587 581.1C478.2 581.1 161.8 581.1 53 581.1C47.48 581.1 43 576.62 43 571.1C43 497.7 43 287.5 43 214.1C43 208.58 47.48 204.1 53 204.1C161.8 204.1 478.2 204.1 587 204.1Z" id="gcMO0gSfa"></path><path d="M350.04 287.95L350.19 287.96L350.34 287.98L350.48 288.01L350.63 288.04L350.77 288.08L350.91 288.12L351.04 288.16L351.18 288.21L351.31 288.27L351.44 288.33L351.57 288.39L351.69 288.46L351.81 288.54L351.93 288.61L352.04 288.69L352.15 288.78L352.26 288.87L352.36 288.96L352.46 289.06L352.55 289.16L352.65 289.26L352.73 289.37L352.81 289.48L352.89 289.59L352.97 289.71L353.03 289.82L353.1 289.95L353.16 290.07L353.21 290.2L353.26 290.33L353.3 290.46L353.34 290.59L353.37 290.72L353.4 290.86L353.42 291L353.44 291.14L353.45 291.28L353.45 291.43L353.45 361.2L427.78 361.2L427.94 361.21L428.09 361.21L428.24 361.23L428.39 361.25L428.53 361.27L428.68 361.3L428.82 361.34L428.96 361.38L429.09 361.43L429.23 361.48L429.36 361.53L429.49 361.59L429.62 361.66L429.74 361.73L429.86 361.8L429.98 361.88L430.09 361.96L430.2 362.04L430.31 362.13L430.41 362.23L430.51 362.32L430.6 362.42L430.7 362.53L430.78 362.63L430.86 362.74L430.94 362.85L431.02 362.97L431.08 363.09L431.15 363.21L431.21 363.33L431.26 363.46L431.31 363.59L431.35 363.72L431.39 363.85L431.42 363.99L431.45 364.13L431.47 364.26L431.49 364.41L431.5 364.55L431.5 364.69L431.5 420.51L431.5 420.66L431.49 420.8L431.47 420.94L431.45 421.08L431.42 421.21L431.39 421.35L431.35 421.48L431.31 421.61L431.26 421.74L431.21 421.87L431.15 421.99L431.08 422.11L431.02 422.23L430.94 422.35L430.86 422.46L430.78 422.57L430.7 422.68L430.6 422.78L430.51 422.88L430.41 422.98L430.31 423.07L430.2 423.16L430.09 423.25L429.98 423.33L429.86 423.4L429.74 423.48L429.62 423.55L429.49 423.61L429.36 423.67L429.23 423.73L429.09 423.78L428.96 423.82L428.82 423.86L428.68 423.9L428.53 423.93L428.39 423.95L428.24 423.97L428.09 423.99L427.94 424L427.78 424L353.45 424L353.45 493.78L353.45 493.92L353.44 494.06L353.42 494.2L353.4 494.34L353.37 494.48L353.34 494.61L353.3 494.75L353.26 494.88L353.21 495.01L353.16 495.13L353.1 495.26L353.03 495.38L352.97 495.5L352.89 495.61L352.81 495.73L352.73 495.84L352.65 495.94L352.55 496.05L352.46 496.15L352.36 496.24L352.26 496.33L352.15 496.42L352.04 496.51L351.93 496.59L351.81 496.67L351.69 496.74L351.57 496.81L351.44 496.87L351.31 496.93L351.18 496.99L351.04 497.04L350.91 497.09L350.77 497.13L350.63 497.16L350.48 497.19L350.34 497.22L350.19 497.24L350.04 497.25L349.89 497.26L349.73 497.26L290.27 497.26L290.11 497.26L289.96 497.25L289.81 497.24L289.66 497.22L289.52 497.19L289.37 497.16L289.23 497.13L289.09 497.09L288.96 497.04L288.82 496.99L288.69 496.93L288.56 496.87L288.43 496.81L288.31 496.74L288.19 496.67L288.07 496.59L287.96 496.51L287.85 496.42L287.74 496.33L287.64 496.24L287.54 496.15L287.45 496.05L287.35 495.94L287.27 495.84L287.19 495.73L287.11 495.61L287.03 495.5L286.97 495.38L286.9 495.26L286.84 495.13L286.79 495.01L286.74 494.88L286.7 494.75L286.66 494.61L286.63 494.48L286.6 494.34L286.58 494.2L286.56 494.06L286.55 493.92L286.55 493.78L286.55 424L212.22 424L212.06 424L211.91 423.99L211.76 423.97L211.61 423.95L211.47 423.93L211.32 423.9L211.18 423.86L211.04 423.82L210.91 423.78L210.77 423.73L210.64 423.67L210.51 423.61L210.38 423.55L210.26 423.48L210.14 423.4L210.02 423.33L209.91 423.25L209.8 423.16L209.69 423.07L209.59 422.98L209.49 422.88L209.4 422.78L209.3 422.68L209.22 422.57L209.14 422.46L209.06 422.35L208.98 422.23L208.92 422.11L208.85 421.99L208.79 421.87L208.74 421.74L208.69 421.61L208.65 421.48L208.61 421.35L208.58 421.21L208.55 421.08L208.53 420.94L208.51 420.8L208.5 420.66L208.5 420.51L208.5 364.69L208.5 364.55L208.51 364.41L208.53 364.26L208.55 364.13L208.58 363.99L208.61 363.85L208.65 363.72L208.69 363.59L208.74 363.46L208.79 363.33L208.85 363.21L208.92 363.09L208.98 362.97L209.06 362.85L209.14 362.74L209.22 362.63L209.3 362.53L209.4 362.42L209.49 362.32L209.59 362.23L209.69 362.13L209.8 362.04L209.91 361.96L210.02 361.88L210.14 361.8L210.26 361.73L210.38 361.66L210.51 361.59L210.64 361.53L210.77 361.48L210.91 361.43L211.04 361.38L211.18 361.34L211.32 361.3L211.47 361.27L211.61 361.25L211.76 361.23L211.91 361.21L212.06 361.21L212.22 361.2L286.55 361.2L286.55 291.43L286.55 291.28L286.56 291.14L286.58 291L286.6 290.86L286.63 290.72L286.66 290.59L286.7 290.46L286.74 290.33L286.79 290.2L286.84 290.07L286.9 289.95L286.97 289.82L287.03 289.71L287.11 289.59L287.19 289.48L287.27 289.37L287.35 289.26L287.45 289.16L287.54 289.06L287.64 288.96L287.74 288.87L287.85 288.78L287.96 288.69L288.07 288.61L288.19 288.54L288.31 288.46L288.43 288.39L288.56 288.33L288.69 288.27L288.82 288.21L288.96 288.16L289.09 288.12L289.23 288.08L289.37 288.04L289.52 288.01L289.66 287.98L289.81 287.96L289.96 287.95L290.11 287.94L290.27 287.94L349.73 287.94L349.89 287.94L350.04 287.95Z" id="a3BbewJBVx"></path><path d="M151.91 204.1C151.91 161.5 151.91 134.88 151.91 124.23C151.91 105.82 166.83 90.9 185.24 90.9C244.58 90.9 391.5 90.9 451.4 90.9C468.25 90.9 481.91 104.56 481.91 121.4C481.91 132.43 481.91 160 481.91 204.1L524.91 204.1C524.91 150.85 524.91 117.57 524.91 104.25C524.91 79.2 504.6 58.9 479.55 58.9C405.83 58.9 230.56 58.9 156.97 58.9C131.53 58.9 110.91 79.52 110.91 104.96C110.91 118.18 110.91 151.23 110.91 204.1L151.91 204.1Z" id="iL90N8abW"></path></defs><g><g><g><use xlink:href="#gcMO0gSfa" opacity="1" fill="#9f3030" fill-opacity="1"></use></g><g><use xlink:href="#a3BbewJBVx" opacity="1" fill="#e2e2e2" fill-opacity="1"></use></g><g><use xlink:href="#iL90N8abW" opacity="1" fill="#e2e2e2" fill-opacity="1"></use></g></g></g></svg>