<?xml version="1.0" encoding="UTF-8" standalone="no"?>
<!DOCTYPE svg PUBLIC "-//W3C//DTD SVG 1.1//EN" "http://www.w3.org/Graphics/SVG/1.1/DTD/svg11.dtd">
<svg version="1.1" xmlns="http://www.w3.org/2000/svg" xmlns:xlink="http://www.w3.org/1999/xlink" preserveAspectRatio="xMidYMid meet" viewBox="0 0 640 640" width="640" height="640"><defs><path d="M350.52 57.37L342.24 58.24L334.07 59.46L326 61L318.04 62.87L310.21 65.06L302.5 67.56L294.92 70.37L287.49 73.47L280.2 76.86L273.06 80.54L266.09 84.49L259.28 88.71L252.64 93.2L246.18 97.94L239.91 102.93L233.83 108.16L227.95 113.63L222.28 119.33L216.81 125.24L211.57 131.38L206.56 137.72L201.77 144.26L197.22 150.99L192.92 157.91L188.88 165.02L185.09 172.29L181.56 179.74L178.31 187.34L175.34 195.09L172.65 202.99L170.25 211.03L168.15 219.2L166.36 227.5L164.87 235.92L163.71 244.44L162.87 253.07L162.36 261.8L162.19 270.62L162.36 279.44L162.87 288.17L163.71 296.8L164.87 305.33L166.36 313.74L168.15 322.04L170.25 330.21L172.65 338.25L175.34 346.15L178.31 353.91L181.56 361.51L185.09 368.95L188.88 376.23L192.92 383.33L197.07 390.02L67.5 525.15L123.3 583.34L252.87 448.21L259.28 452.53L266.09 456.75L273.06 460.71L280.2 464.38L287.49 467.78L294.92 470.88L302.5 473.68L310.21 476.18L318.04 478.37L326 480.24L334.07 481.79L342.24 483L350.52 483.88L358.89 484.41L367.34 484.59L375.8 484.41L384.17 483.88L392.45 483L400.62 481.79L408.69 480.24L416.65 478.37L424.48 476.18L432.19 473.68L439.76 470.88L447.2 467.78L454.49 464.38L461.62 460.71L468.6 456.75L475.41 452.53L482.05 448.05L488.51 443.31L494.78 438.32L500.86 433.08L506.74 427.62L512.41 421.92L517.87 416L523.12 409.87L528.13 403.53L532.92 396.99L537.46 390.25L541.76 383.33L545.81 376.23L549.6 368.95L553.13 361.51L556.38 353.91L559.35 346.15L562.04 338.25L564.44 330.21L566.54 322.04L568.33 313.74L569.81 305.33L570.98 296.8L571.82 288.17L572.33 279.44L572.5 270.62L572.33 261.8L571.82 253.07L570.98 244.44L569.81 235.92L568.33 227.5L566.54 219.2L564.44 211.03L562.04 202.99L559.35 195.09L556.38 187.34L553.13 179.74L549.6 172.29L545.81 165.02L541.76 157.91L537.46 150.99L532.92 144.26L528.13 137.72L523.12 131.38L517.87 125.24L512.41 119.33L506.74 113.63L500.86 108.16L494.78 102.93L488.51 97.94L482.05 93.2L475.41 88.71L468.6 84.49L461.62 80.54L454.49 76.86L447.2 73.47L439.76 70.37L432.19 67.56L424.48 65.06L416.65 62.87L408.69 61L400.62 59.46L392.45 58.24L384.17 57.37L375.8 56.83L367.34 56.66L358.89 56.83L350.52 57.37ZM377.73 139.04L382.83 139.58L387.88 140.33L392.86 141.28L397.76 142.44L402.6 143.79L407.35 145.33L412.03 147.06L416.62 148.98L421.11 151.07L425.52 153.34L429.82 155.78L434.02 158.38L438.12 161.15L442.1 164.07L445.97 167.15L449.72 170.38L453.35 173.75L456.85 177.27L460.22 180.92L463.46 184.7L466.55 188.62L469.51 192.65L472.31 196.81L474.96 201.08L477.46 205.46L479.8 209.95L481.97 214.54L483.98 219.23L485.82 224.02L487.48 228.89L488.96 233.85L490.25 238.9L491.36 244.02L492.27 249.21L492.99 254.47L493.51 259.8L493.82 265.18L493.93 270.62L493.82 276.07L493.51 281.45L492.99 286.78L492.27 292.04L491.36 297.23L490.25 302.35L488.96 307.39L487.48 312.35L485.82 317.23L483.98 322.01L481.97 326.7L479.8 331.29L477.46 335.78L474.96 340.17L472.31 344.44L469.51 348.59L466.55 352.63L463.46 356.54L460.22 360.33L456.85 363.98L453.35 367.49L449.72 370.87L445.97 374.09L442.1 377.17L438.12 380.1L434.02 382.87L429.82 385.47L425.52 387.91L421.11 390.18L416.62 392.27L412.03 394.18L407.35 395.91L402.6 397.46L397.76 398.81L392.86 399.96L387.88 400.92L382.83 401.67L377.73 402.21L372.56 402.53L367.34 402.65L362.13 402.53L356.96 402.21L351.86 401.67L346.81 400.92L341.83 399.96L336.92 398.81L332.09 397.46L327.33 395.91L322.66 394.18L318.07 392.27L313.57 390.18L309.17 387.91L304.87 385.47L300.66 382.87L296.57 380.1L292.58 377.17L288.71 374.09L284.96 370.87L281.34 367.49L277.83 363.98L274.46 360.33L271.23 356.54L268.13 352.63L265.18 348.59L262.38 344.44L259.72 340.17L257.23 335.78L254.89 331.29L252.71 326.7L250.71 322.01L248.87 317.23L247.21 312.35L245.73 307.39L244.44 302.35L243.33 297.23L242.41 292.04L241.7 286.78L241.18 281.45L240.86 276.07L240.76 270.62L240.86 265.18L241.18 259.8L241.7 254.47L242.41 249.21L243.33 244.02L244.44 238.9L245.73 233.85L247.21 228.89L248.87 224.02L250.71 219.23L252.71 214.54L254.89 209.95L257.23 205.46L259.72 201.08L262.38 196.81L265.18 192.65L268.13 188.62L271.23 184.7L274.46 180.92L277.83 177.27L281.34 173.75L284.96 170.38L288.71 167.15L292.58 164.07L296.57 161.15L300.66 158.38L304.87 155.78L309.17 153.34L313.57 151.07L318.07 148.98L322.66 147.06L327.33 145.33L332.09 143.79L336.92 142.44L341.83 141.28L346.81 140.33L351.86 139.58L356.96 139.04L362.13 138.71L367.34 138.6L372.56 138.71L377.73 139.04Z" id="b8Whh5bEeI"></path><path d="M388.63 179.31L388.75 179.32L388.86 179.33L388.96 179.35L389.07 179.38L389.17 179.41L389.28 179.44L389.38 179.48L389.48 179.52L389.58 179.56L389.67 179.61L389.77 179.66L389.86 179.72L389.95 179.78L390.03 179.84L390.12 179.91L390.2 179.98L390.28 180.05L390.35 180.12L390.43 180.2L390.5 180.28L390.56 180.36L390.63 180.45L390.69 180.54L390.75 180.63L390.8 180.72L390.85 180.82L390.9 180.92L390.94 181.02L390.98 181.12L391.02 181.22L391.05 181.33L391.08 181.44L391.1 181.55L391.12 181.66L391.14 181.77L391.15 181.88L391.16 182L391.16 182.11L391.16 238.45L446.16 238.45L446.27 238.45L446.38 238.46L446.5 238.47L446.61 238.48L446.71 238.5L446.82 238.53L446.92 238.56L447.03 238.59L447.13 238.63L447.23 238.67L447.33 238.71L447.42 238.76L447.52 238.81L447.61 238.87L447.7 238.93L447.78 238.99L447.87 239.06L447.95 239.13L448.03 239.2L448.1 239.27L448.18 239.35L448.25 239.43L448.31 239.51L448.38 239.6L448.44 239.69L448.5 239.78L448.55 239.87L448.6 239.97L448.65 240.07L448.69 240.17L448.73 240.27L448.77 240.37L448.8 240.48L448.83 240.59L448.85 240.7L448.87 240.81L448.89 240.92L448.9 241.03L448.91 241.15L448.91 241.26L448.91 286.33L448.91 286.45L448.9 286.56L448.89 286.67L448.87 286.79L448.85 286.9L448.83 287.01L448.8 287.11L448.77 287.22L448.73 287.32L448.69 287.43L448.65 287.53L448.6 287.62L448.55 287.72L448.5 287.81L448.44 287.9L448.38 287.99L448.31 288.08L448.25 288.16L448.18 288.24L448.1 288.32L448.03 288.4L447.95 288.47L447.87 288.54L447.78 288.6L447.7 288.67L447.61 288.72L447.52 288.78L447.42 288.83L447.33 288.88L447.23 288.93L447.13 288.97L447.03 289L446.92 289.04L446.82 289.06L446.71 289.09L446.61 289.11L446.5 289.13L446.38 289.14L446.27 289.14L446.16 289.15L391.16 289.15L391.16 345.48L391.16 345.6L391.15 345.71L391.14 345.82L391.12 345.94L391.1 346.05L391.08 346.16L391.05 346.26L391.02 346.37L390.98 346.47L390.94 346.58L390.9 346.68L390.85 346.77L390.8 346.87L390.75 346.96L390.69 347.05L390.63 347.14L390.56 347.23L390.5 347.31L390.43 347.39L390.35 347.47L390.28 347.55L390.2 347.62L390.12 347.69L390.03 347.75L389.95 347.82L389.86 347.87L389.77 347.93L389.67 347.98L389.58 348.03L389.48 348.08L389.38 348.12L389.28 348.15L389.17 348.19L389.07 348.21L388.96 348.24L388.86 348.26L388.75 348.28L388.63 348.29L388.52 348.29L388.41 348.3L344.41 348.3L344.3 348.29L344.18 348.29L344.07 348.28L343.96 348.26L343.86 348.24L343.75 348.21L343.64 348.19L343.54 348.15L343.44 348.12L343.34 348.08L343.24 348.03L343.15 347.98L343.05 347.93L342.96 347.87L342.87 347.82L342.79 347.75L342.7 347.69L342.62 347.62L342.54 347.55L342.47 347.47L342.39 347.39L342.32 347.31L342.25 347.23L342.19 347.14L342.13 347.05L342.07 346.96L342.02 346.87L341.97 346.77L341.92 346.68L341.88 346.58L341.84 346.47L341.8 346.37L341.77 346.26L341.74 346.16L341.72 346.05L341.7 345.94L341.68 345.82L341.67 345.71L341.66 345.6L341.66 345.48L341.66 289.15L286.66 289.15L286.55 289.14L286.43 289.14L286.32 289.13L286.21 289.11L286.11 289.09L286 289.06L285.89 289.04L285.79 289L285.69 288.97L285.59 288.93L285.49 288.88L285.4 288.83L285.3 288.78L285.21 288.72L285.12 288.67L285.04 288.6L284.95 288.54L284.87 288.47L284.79 288.4L284.72 288.32L284.64 288.24L284.57 288.16L284.5 288.08L284.44 287.99L284.38 287.9L284.32 287.81L284.27 287.72L284.22 287.62L284.17 287.53L284.13 287.43L284.09 287.32L284.05 287.22L284.02 287.11L283.99 287.01L283.97 286.9L283.95 286.79L283.93 286.67L283.92 286.56L283.91 286.45L283.91 286.33L283.91 241.26L283.91 241.15L283.92 241.03L283.93 240.92L283.95 240.81L283.97 240.7L283.99 240.59L284.02 240.48L284.05 240.37L284.09 240.27L284.13 240.17L284.17 240.07L284.22 239.97L284.27 239.87L284.32 239.78L284.38 239.69L284.44 239.6L284.5 239.51L284.57 239.43L284.64 239.35L284.72 239.27L284.79 239.2L284.87 239.13L284.95 239.06L285.04 238.99L285.12 238.93L285.21 238.87L285.3 238.81L285.4 238.76L285.49 238.71L285.59 238.67L285.69 238.63L285.79 238.59L285.89 238.56L286 238.53L286.11 238.5L286.21 238.48L286.32 238.47L286.43 238.46L286.55 238.45L286.66 238.45L341.66 238.45L341.66 182.11L341.66 182L341.67 181.88L341.68 181.77L341.7 181.66L341.72 181.55L341.74 181.44L341.77 181.33L341.8 181.22L341.84 181.12L341.88 181.02L341.92 180.92L341.97 180.82L342.02 180.72L342.07 180.63L342.13 180.54L342.19 180.45L342.25 180.36L342.32 180.28L342.39 180.2L342.47 180.12L342.54 180.05L342.62 179.98L342.7 179.91L342.79 179.84L342.87 179.78L342.96 179.72L343.05 179.66L343.15 179.61L343.24 179.56L343.34 179.52L343.44 179.48L343.54 179.44L343.64 179.41L343.75 179.38L343.86 179.35L343.96 179.33L344.07 179.32L344.18 179.31L344.3 179.3L344.41 179.3L388.41 179.3L388.52 179.3L388.63 179.31Z" id="f8Sop4dgi"></path></defs><g><g><g><use xlink:href="#b8Whh5bEeI" opacity="1" fill="#575757" fill-opacity="1"></use></g><g><use xlink:href="#f8Sop4dgi" opacity="1" fill="#eb9797" fill-opacity="1"></use></g></g></g></svg>