<?xml version="1.0" encoding="UTF-8" standalone="no"?>
<!DOCTYPE svg PUBLIC "-//W3C//DTD SVG 1.1//EN" "http://www.w3.org/Graphics/SVG/1.1/DTD/svg11.dtd">
<svg version="1.1" xmlns="http://www.w3.org/2000/svg" xmlns:xlink="http://www.w3.org/1999/xlink" preserveAspectRatio="xMidYMid meet" viewBox="0 0 640 640" width="640" height="640"><defs><path d="M77.48 497.51L75.05 497.23L72.66 496.81L70.34 496.26L68.08 495.59L65.89 494.81L63.76 493.9L61.7 492.89L59.71 491.78L57.8 490.56L55.96 489.25L54.2 487.84L52.53 486.35L50.94 484.78L49.43 483.13L48.02 481.41L46.7 479.61L45.47 477.75L44.34 475.84L43.3 473.87L42.38 471.84L41.55 469.77L40.83 467.66L40.22 465.51L39.73 463.33L39.35 461.12L39.08 458.89L38.93 456.63L38.91 454.37L39.01 452.09L39.24 449.81L39.6 447.52L40.09 445.24L40.71 442.97L41.48 440.71L42.38 438.46L43.42 436.24L44.61 434.05L45.94 431.88L138.43 290.85L230.93 431.88L232.26 434.05L233.45 436.24L234.49 438.46L235.39 440.71L236.16 442.97L236.78 445.24L237.27 447.52L237.63 449.81L237.86 452.09L237.96 454.37L237.93 456.63L237.79 458.89L237.52 461.12L237.14 463.33L236.65 465.51L236.04 467.66L235.32 469.77L234.49 471.84L233.56 473.87L232.53 475.84L231.4 477.75L230.17 479.61L228.85 481.41L227.44 483.13L225.93 484.78L224.34 486.35L222.67 487.84L220.91 489.25L219.07 490.56L217.16 491.78L215.17 492.89L213.11 493.9L210.98 494.81L208.79 495.59L206.53 496.26L204.2 496.81L201.82 497.23L199.38 497.51L196.89 497.67L194.35 497.67L138.43 496.31L82.52 497.67L79.98 497.67L77.48 497.51Z" id="bdPoaevWR"></path><path d="" id="h2zkhsC6KG"></path><path d="M440.62 497.51L438.18 497.23L435.8 496.81L433.47 496.26L431.21 495.59L429.02 494.81L426.89 493.9L424.83 492.89L422.84 491.78L420.93 490.56L419.09 489.25L417.33 487.84L415.66 486.35L414.07 484.78L412.56 483.13L411.15 481.41L409.83 479.61L408.6 477.75L407.47 475.84L406.44 473.87L405.51 471.84L404.68 469.77L403.96 467.66L403.35 465.51L402.86 463.33L402.48 461.12L402.21 458.89L402.07 456.63L402.04 454.37L402.14 452.09L402.37 449.81L402.73 447.52L403.22 445.24L403.84 442.97L404.61 440.71L405.51 438.46L406.55 436.24L407.74 434.05L409.07 431.88L501.57 290.85L594.06 431.88L595.39 434.05L596.58 436.24L597.62 438.46L598.52 440.71L599.29 442.97L599.91 445.24L600.4 447.52L600.76 449.81L600.99 452.09L601.09 454.37L601.07 456.63L600.92 458.89L600.65 461.12L600.27 463.33L599.78 465.51L599.17 467.66L598.45 469.77L597.62 471.84L596.7 473.87L595.66 475.84L594.53 477.75L593.3 479.61L591.98 481.41L590.57 483.13L589.06 484.78L587.47 486.35L585.8 487.84L584.04 489.25L582.2 490.56L580.29 491.78L578.3 492.89L576.24 493.9L574.11 494.81L571.92 495.59L569.66 496.26L567.34 496.81L564.95 497.23L562.52 497.51L560.02 497.67L557.48 497.67L501.57 496.31L445.65 497.67L443.11 497.67L440.62 497.51Z" id="b90ZP7Tcn"></path><path d="M274.94 541.56L273.14 541.34L271.38 541.04L269.66 540.63L267.99 540.14L266.37 539.55L264.8 538.89L263.28 538.14L261.81 537.32L260.39 536.42L259.04 535.45L257.74 534.41L256.5 533.31L255.32 532.15L254.21 530.93L253.17 529.65L252.19 528.33L251.28 526.96L250.45 525.54L249.69 524.08L249 522.59L248.39 521.06L247.86 519.5L247.41 517.91L247.04 516.3L246.76 514.66L246.56 513.01L246.46 511.35L246.44 509.67L246.51 507.99L246.68 506.3L246.95 504.62L247.31 502.93L247.77 501.25L248.33 499.58L249 497.92L249.77 496.28L250.65 494.66L251.63 493.06L319.98 388.85L388.32 493.06L389.31 494.66L390.18 496.28L390.96 497.92L391.62 499.58L392.18 501.25L392.65 502.93L393.01 504.62L393.27 506.3L393.44 507.99L393.52 509.67L393.5 511.35L393.39 513.01L393.2 514.66L392.91 516.3L392.55 517.91L392.1 519.5L391.57 521.06L390.96 522.59L390.27 524.08L389.51 525.54L388.67 526.96L387.76 528.33L386.79 529.65L385.74 530.93L384.63 532.15L383.46 533.31L382.22 534.41L380.92 535.45L379.56 536.42L378.15 537.32L376.68 538.14L375.16 538.89L373.58 539.55L371.96 540.14L370.29 540.63L368.58 541.04L366.82 541.34L365.01 541.56L363.17 541.67L361.29 541.67L319.98 540.66L278.66 541.67L276.78 541.67L274.94 541.56Z" id="e1YJfsw3CX"></path><path d="M406.07 345.26C406.07 391.39 367.49 428.85 319.98 428.85C272.46 428.85 233.89 391.39 233.89 345.26C233.89 299.13 272.46 261.67 319.98 261.67C367.49 261.67 406.07 299.13 406.07 345.26Z" id="b1UwYgdZG"></path><path d="M253.02 209.59C253.02 270.99 201.68 320.85 138.43 320.85C75.19 320.85 23.85 270.99 23.85 209.59C23.85 148.18 75.19 98.33 138.43 98.33C201.68 98.33 253.02 148.18 253.02 209.59Z" id="ctLcBR2cA"></path><path d="M616.15 209.59C616.15 270.99 564.81 320.85 501.57 320.85C438.32 320.85 386.98 270.99 386.98 209.59C386.98 148.18 438.32 98.33 501.57 98.33C564.81 98.33 616.15 148.18 616.15 209.59Z" id="a3lVXjT9Zn"></path></defs><g><g><g><use xlink:href="#bdPoaevWR" opacity="1" fill="#89c6cb" fill-opacity="1"></use></g><g><g><use xlink:href="#h2zkhsC6KG" opacity="1" fill-opacity="0" stroke="#000000" stroke-width="1" stroke-opacity="1"></use></g></g><g><use xlink:href="#b90ZP7Tcn" opacity="1" fill="#89c6cb" fill-opacity="1"></use></g><g><use xlink:href="#e1YJfsw3CX" opacity="1" fill="#ffadf6" fill-opacity="1"></use></g><g><use xlink:href="#b1UwYgdZG" opacity="1" fill="#e4e4e4" fill-opacity="1"></use></g><g><use xlink:href="#ctLcBR2cA" opacity="1" fill="#e4e4e4" fill-opacity="1"></use></g><g><use xlink:href="#a3lVXjT9Zn" opacity="1" fill="#e4e4e4" fill-opacity="1"></use></g></g></g></svg>