<?xml version="1.0" encoding="UTF-8" standalone="no"?>
<!DOCTYPE svg PUBLIC "-//W3C//DTD SVG 1.1//EN" "http://www.w3.org/Graphics/SVG/1.1/DTD/svg11.dtd">
<svg version="1.1" xmlns="http://www.w3.org/2000/svg" xmlns:xlink="http://www.w3.org/1999/xlink" preserveAspectRatio="xMidYMid meet" viewBox="0 0 640 640" width="640" height="640"><defs><path d="M414.16 68.17C426.42 70.8 433.24 72.26 434.6 72.55C436.22 73.12 437.23 73.48 437.63 73.63C449.19 77.76 460.15 83.38 470.24 90.37C470.74 90.72 472 91.59 474.02 92.99C475.63 94.01 488.47 102.18 490.08 103.2C490.08 103.2 490.08 103.2 490.08 103.2C501.66 108.99 512.06 116.88 520.77 126.46C520.96 126.67 521.44 127.19 522.2 128.02C524.89 130.71 526.57 132.4 527.24 133.07C535.49 141.32 542.19 150.98 547.01 161.6C547.01 161.6 547.01 161.6 547.01 161.6C548.03 163.35 556.21 177.37 557.23 179.12C557.72 180.09 558.02 180.7 558.15 180.94C565.3 195.26 570.87 210.31 574.75 225.84C574.75 225.84 574.75 225.84 574.75 225.84C574.85 226.21 574.9 226.44 574.93 226.53C578.69 241.58 580.59 257.04 580.59 272.55C580.59 272.55 580.59 272.55 580.59 272.55C580.59 274.59 580.59 290.95 580.59 292.99C580.59 292.99 580.59 292.99 580.59 292.99C580.59 305.58 578.84 318.11 575.38 330.22C575.3 330.51 575.09 331.24 574.75 332.41C574.17 334.31 569.49 349.49 568.91 351.39C568.91 351.39 568.91 351.39 568.91 351.39C564.06 367.88 557.4 383.79 549.05 398.82C548.78 399.31 548.1 400.53 547.01 402.48C547.01 402.48 547.01 402.48 547.01 402.48C537.31 417.04 525.99 430.43 513.25 442.42C512.5 443.13 510.61 444.9 507.6 447.74C505.95 449.01 497.67 455.33 482.78 466.72C466.14 476.36 456.89 481.71 455.04 482.78C446.88 488.03 441.78 491.31 439.74 492.62C436.41 494.75 433.92 497.96 432.67 501.71C431.6 504.93 430.33 508.75 429.26 511.95C427.99 515.75 428.03 519.87 429.38 523.64C430.08 525.59 431.82 530.46 434.6 538.26C434.74 538.52 434.82 538.69 434.85 538.75C439.54 548.14 445.07 557.08 451.36 565.47C452.1 566.45 450.1 563.78 452.14 566.51C453.39 568.17 452.29 570.54 450.22 570.66C411.48 572.94 299.37 579.53 260.45 581.82C258.42 581.94 256.81 580.14 257.15 578.14C257.6 575.42 257.74 574.6 258.05 572.74C258.95 567.3 259.04 561.75 258.31 556.29C257.95 553.56 257.85 552.84 257.46 549.92C256.82 545.07 255.68 540.31 254.05 535.71C252.79 532.13 252.66 531.76 251.7 529.04C249.23 522.05 243.36 516.81 236.14 515.14C234.66 514.8 237.3 515.41 234.7 514.81C230.75 513.9 226.71 513.44 222.66 513.44C219.5 513.44 226.83 513.44 226.35 513.44C213.38 513.44 200.43 514.51 187.63 516.64C186.22 516.88 199.37 514.69 197.49 515C186.24 516.87 174.84 517.82 163.43 517.82C161.02 517.82 173.01 517.82 171.11 517.82C158.28 517.82 145.77 513.81 135.33 506.35C134.45 505.72 145.35 513.51 143.84 512.43C135.41 506.41 128.78 498.18 124.7 488.64C124.19 487.47 130.94 503.22 130.94 503.22C125.16 489.73 122.18 475.21 122.18 460.54C122.18 460.32 122.18 471.26 122.18 468.38C122.18 462.51 120.65 456.74 117.74 451.64C116.29 449.11 115.22 447.24 113.48 444.19C111.6 440.9 111.32 436.93 112.73 433.41C113.45 431.61 113.07 432.56 113.71 430.96C115.15 427.36 113.33 423.29 109.69 421.96C107.81 421.28 108.86 421.66 106.99 420.98C103.12 419.57 100.82 415.58 101.56 411.52C101.78 410.32 102.33 407.3 103.2 402.48C103.2 394.96 103.2 390.26 103.2 388.37C103.2 386.31 101.97 384.44 100.07 383.62C96.61 382.14 90.14 379.37 86.87 377.97C84.15 376.8 81.64 375.2 79.42 373.24C77.47 371.49 75.68 369.91 73.91 368.33C71.06 365.8 68.45 363.01 66.11 360C64.77 358.28 64.42 357.83 63.12 356.16C60.81 353.2 60.23 349.25 61.58 345.75C62.6 343.08 61.85 345.04 62.46 343.46C65.24 336.23 69.92 329.88 76.01 325.1C77.5 323.93 81.21 321.01 87.15 316.35C96.74 306.76 102.73 300.77 105.13 298.37C108.63 294.87 111 290.39 111.93 285.52C112.81 280.88 113.26 278.54 113.94 274.93C115.54 266.55 116.34 258.04 116.34 249.51C116.34 246.82 116.34 253.3 116.34 251.04C116.34 241.08 117.33 231.13 119.28 221.36C119.67 219.43 120.64 214.59 122.18 206.86C124.47 199.6 125.91 195.07 126.48 193.26C129.45 183.86 133.35 174.78 138.14 166.16C139.13 164.38 141.6 159.94 145.54 152.84C147.11 150.18 148.09 148.51 148.48 147.85C156.19 134.75 166.27 123.2 178.23 113.81C178.54 113.57 179.32 112.95 180.58 111.96C183.04 109.88 184.58 108.58 185.19 108.06C194.72 99.99 205.31 93.25 216.65 88.02C216.9 87.9 217.53 87.61 218.54 87.15C220.44 86.42 235.62 80.58 237.52 79.85C237.52 79.85 237.52 79.85 237.52 79.85C250.15 74.99 263.16 71.21 276.43 68.56C276.69 68.51 277.35 68.38 278.39 68.17C280.43 67.59 296.79 62.91 298.83 62.33C300.64 61.84 301.76 61.53 302.21 61.4C310.63 59.11 319.31 57.95 328.03 57.95C328.03 57.95 328.03 57.95 328.03 57.95C333.22 57.95 336.46 57.95 337.76 57.95C350.72 57.95 363.67 58.87 376.5 60.7C378.02 60.92 381.81 61.46 387.89 62.33C391.39 63.11 400.15 65.06 414.16 68.17Z" id="a8edY0ZvZ"></path><path d="M173.92 247.31C178.73 250.58 181.73 252.63 182.93 253.45C193.83 260.88 205.6 266.96 217.98 271.54C220.49 272.47 213.37 269.83 216.87 271.13C225.97 274.5 234.78 278.61 243.2 283.43C243.9 283.83 230.54 276.19 230.54 276.19C241.3 282.34 252.64 287.41 264.39 291.33C264.81 291.47 265.85 291.82 267.52 292.37C269.6 292.99 280 296.07 298.71 301.61L334.53 310.86L364.57 318.59L400.39 325.88C421.88 327.96 433.82 329.11 436.21 329.34C444.36 329.34 449.45 329.34 451.49 329.34C462.24 329.34 471.65 336.57 474.42 346.96C476.25 353.83 480.09 368.23 482.68 377.95C483.21 379.95 485.03 381.34 487.1 381.34C491.48 381.34 497.45 381.34 500.92 381.34C505.49 381.34 509.32 377.84 509.72 373.28C510.24 367.42 511.54 352.78 513.63 329.34C516.95 328.4 519.02 327.8 519.85 327.57C531.41 324.26 541.21 316.54 547.12 306.08C548.28 304.03 544.67 310.43 546.36 307.43C550.72 299.71 554.46 291.66 557.54 283.35C558.92 279.61 555.44 289 556.08 287.29C561.52 272.6 562 256.52 557.43 241.53C557.29 241.07 556.94 239.91 556.38 238.06C555.46 235.17 548.06 212.07 547.14 209.18C546.6 207.84 546.26 207 546.13 206.66C540.64 192.95 534.18 179.65 526.78 166.88C526.57 166.51 526.03 165.59 525.18 164.12C523.86 162.32 523.03 161.19 522.69 160.74C513.71 148.55 501.81 138.82 488.07 132.44C485.79 131.38 492.96 134.71 488.95 132.85C480.76 129.05 472.9 124.6 465.43 119.54C460.51 116.21 470.75 123.14 469.28 122.14C450.39 109.35 429.96 98.99 408.48 91.32C408.48 91.32 408.48 91.32 408.48 91.32C392.5 87.83 382.51 85.64 378.52 84.77C373.86 83.75 369.1 83.23 364.33 83.23C356.98 83.23 366.11 83.23 364.76 83.23C340.04 83.23 315.38 85.55 291.09 90.14C290.26 90.3 288.18 90.69 284.85 91.32C275 94.35 268.84 96.25 266.38 97C248.73 102.44 231.86 110.17 216.23 120C213.97 121.41 208.35 124.95 199.34 130.61C193.12 135.68 189.23 138.85 187.67 140.12C174.77 150.63 163.95 163.47 155.77 177.96C153.16 182.59 154.12 180.9 150.61 187.12C145.58 196.03 144.49 206.63 147.59 216.37C148.02 217.73 149.1 221.1 150.82 226.51C155.44 230.67 171.61 245.23 173.92 247.31Z" id="d2A6Qh1DSt"></path></defs><g><g><g><use xlink:href="#a8edY0ZvZ" opacity="1" fill="#e4e4e4" fill-opacity="1"></use></g><g><use xlink:href="#d2A6Qh1DSt" opacity="1" fill="#ffadf6" fill-opacity="1"></use></g></g></g></svg>